<svg width="780" height="652" viewBox="0 0 780 652" fill="none" xmlns="http://www.w3.org/2000/svg">
<path d="M90.9517 470.413L85.1922 498.769H69.9936L70.4735 492.334L70.6335 489.619H57.1948L56.7948 491.53L43.676 556.387L42.9561 559.504H52.4752L49.3555 575.09H4.79956L7.99927 559.504H17.5984L17.9984 557.593L31.1971 492.736L31.7571 489.619H18.1583L17.5984 491.127L15.0386 498.769H0L5.67948 470.413H90.9517ZM142.627 575.09H110.31L105.19 491.831L105.03 489.518H98.071L101.911 470.313H144.467L140.547 489.518H132.468V492.032L132.708 543.114V552.364L136.547 544.421L161.265 493.339L163.105 489.518H154.546L158.785 470.313H195.902L142.627 575.09ZM237.418 488.111C230.059 488.111 227.419 492.233 226.539 495.652C223.9 505.708 233.499 511.137 238.138 513.651C238.698 514.053 239.258 514.255 239.578 514.556C257.096 524.712 256.537 536.98 254.697 545.326C251.497 556.889 245.258 565.436 235.978 570.665C228.539 574.888 219.18 577 208.301 577C196.462 577 185.903 574.386 181.663 573.28L187.023 546.633H202.461L202.301 552.968L202.221 554.677L203.501 555.381C205.501 556.487 208.381 556.99 211.581 556.99C218.54 556.99 226.139 554.174 226.459 546.13C226.779 538.589 223.1 536.075 213.98 530.042C211.661 528.533 209.101 526.824 205.981 524.612C192.062 514.858 197.342 494.546 199.422 490.021C203.021 481.977 209.021 476.145 217.26 472.525C223.979 469.508 232.139 468 241.498 468C253.177 468 263.656 470.413 267.975 471.519L262.376 498.769H247.257L247.417 492.133L247.497 490.122L245.977 489.619C245.817 489.619 241.818 488.111 237.418 488.111Z" fill="#003380"/>
<mask id="mask0_1181_53" style="mask-type:luminance" maskUnits="userSpaceOnUse" x="285" y="153" width="495" height="424">
<path d="M285.565 422.4V576.1L780 576.5V153.5L285.565 422.4Z" fill="white"/>
</mask>
<g mask="url(#mask0_1181_53)">
<path d="M780 153.5H285.565V576.5H780V153.5Z" fill="url(#paint0_linear_1181_53)"/>
</g>
<path d="M343.484 503.9H376.581V494.2H343.484V469H377.96V479.6H388.992V459.2H331.815V526.4H320.783V536.1H389.735V526.4H343.484V503.9ZM548.959 496.5C547.793 492.6 545.989 489.3 543.656 486.5C541.322 483.8 538.352 481.8 534.745 480.5C531.138 479.2 527.107 478.5 522.44 478.5C513.741 478.5 506.74 481.2 501.33 486.5C496.238 491.8 493.692 498.7 493.692 507.1C493.692 511.7 494.223 515.9 495.496 519.6C496.769 523.3 498.678 526.5 501.224 529.2C503.876 532.1 506.952 534.1 510.665 535.5C514.272 536.8 518.409 537.4 522.97 537.4C526.259 537.4 529.653 536.9 532.942 535.9C536.23 534.9 540.155 533 544.822 530.1C544.08 529.9 543.337 529.5 542.489 529C541.64 528.5 540.791 528 540.049 527.3C539.306 526.7 538.67 526.1 538.033 525.5C537.397 524.9 537.079 524.3 536.866 523.9C534.745 525.4 532.517 526.6 530.183 527.3C527.85 528 525.516 528.4 523.182 528.4C517.454 528.4 513.105 526.6 510.028 523.1C507.589 520.2 506.104 516.3 505.467 511.3H550.657C550.763 505.4 550.126 500.5 548.959 496.5ZM505.785 502.3C506.528 498.5 508.013 495.4 510.028 493C513.105 489.4 517.242 487.6 522.44 487.6C527.744 487.6 531.775 489 534.427 491.9C536.866 494.3 538.352 497.7 538.988 502.3H505.785ZM485.312 501.3C485.312 497.8 484.888 494.6 484.039 491.7C483.19 488.9 481.811 486.5 479.902 484.5C478.099 482.5 475.659 481 473.007 480C470.143 479.1 467.066 478.5 463.566 478.5C458.474 478.5 454.337 479.8 450.942 482.2C450.094 482.8 449.351 483.5 448.609 484.2C447.866 484.8 447.123 485.6 446.593 486.3C445.002 483.9 442.986 482.1 440.653 480.8C439.061 480 437.152 479.4 435.137 479C433.015 478.7 430.893 478.4 428.666 478.4C424.529 478.4 420.816 479.3 417.315 481.1C416.679 481.5 416.042 481.9 415.406 482.3C414.769 482.7 414.133 483.2 413.602 483.7V479.5H392.811V488.5H402.57V536.1H423.362V527.1H413.602V506.7C413.602 503.3 413.921 500.5 414.557 498.1C415.194 495.8 416.042 493.9 417.209 492.3C418.27 491 419.649 489.9 421.346 489.2C423.044 488.4 425.271 488.1 428.029 488.1C431.848 488.1 434.606 489.1 436.091 491.2C436.94 492.3 437.576 493.7 438.001 495.4C438.425 497.1 438.637 499.2 438.637 501.7V531.7H438.849V536.1H459.323V527.1H449.775V503.7C449.775 501 450.094 498.7 450.73 496.8C451.367 494.9 452.215 493.3 453.382 492C454.549 490.8 455.822 489.8 457.519 489.2C459.11 488.5 461.232 488.2 463.778 488.2C467.597 488.2 470.355 489.2 471.84 491.3C472.582 492.4 473.325 493.8 473.855 495.5C474.386 497.2 474.598 499.3 474.598 501.8V536.2H494.223V527.2H485.63V501.3H485.312ZM573.888 492.8C575.904 489.8 578.874 488.3 582.587 488.3L590.012 489.2V478.9C588.209 478.8 586.511 478.8 585.132 478.6C583.647 478.5 582.268 478.5 580.889 478.6C579.51 478.7 578.237 479 576.858 479.5C575.479 480 574.1 480.8 572.509 481.8C571.66 482.3 570.918 482.9 570.387 483.5V479.7H550.232V488.7H559.355V536.3H582.48V527.3H570.281V506.2C570.387 500.5 571.554 496 573.888 492.8ZM735.447 527.2V459.3H724.52V484.7C723.035 483.3 721.338 482.1 719.323 481.1C715.398 479.3 711.473 478.4 707.442 478.4C698.637 478.4 691.636 481.1 686.332 486.5C681.24 491.7 678.8 498.9 678.8 507.8C678.8 516.8 681.346 523.9 686.332 529.1C691.53 534.5 698.637 537.2 707.442 537.2C710.518 537.2 713.594 536.6 716.671 535.4C719.747 534.2 722.293 532.5 724.52 530.3V536H744.676V527H735.447V527.2ZM719.959 523.1C718.58 524.8 716.883 526.2 714.867 527C712.852 527.9 710.518 528.4 707.654 528.4C704.79 528.4 702.35 527.9 700.228 527C698.213 526.1 696.516 524.8 695.137 523.1C692.06 519.6 690.575 514.5 690.575 507.9C690.575 504.5 690.999 501.6 691.742 499C692.591 496.5 693.758 494.3 695.137 492.5C696.516 490.8 698.213 489.5 700.228 488.7C702.244 487.9 704.684 487.5 707.548 487.5C712.958 487.5 717.095 489.1 720.065 492.3C721.444 493.9 722.505 495.9 723.354 498.4C724.096 500.8 724.52 503.7 724.52 507.2C724.52 514.1 722.929 519.4 719.959 523.1ZM671.269 459.3H660.237V527.2H651.008V532.7L646.446 527.2H639.339V498.6C639.339 495.3 638.809 492.4 637.854 489.8C636.899 487.3 635.202 485.1 633.08 483.4C630.959 481.7 628.307 480.5 625.336 479.7C622.366 479 618.866 478.5 615.047 478.5C613.137 478.5 611.122 478.8 609 479.4C606.773 480 604.757 480.5 602.848 481.2C600.938 481.9 598.711 482.8 596.059 483.9L600.196 492C600.408 491.9 600.938 491.7 601.787 491.4C602.742 491.1 603.802 490.8 604.969 490.3C606.136 489.9 606.985 489.6 607.515 489.4C609 488.8 610.591 488.4 612.077 488C613.562 487.6 614.729 487.5 615.789 487.5C617.805 487.5 619.608 487.7 621.093 488.2C622.578 488.7 623.851 489.4 625.018 490.3C627.246 491.9 628.307 494.7 628.307 498.5V500.4H618.547C613.668 500.4 609.319 500.7 605.606 501.4C601.893 502.1 598.711 503.1 596.059 504.6C590.649 507.5 587.997 512.2 587.997 518.5C587.997 524.1 590.012 528.6 593.831 532.2C595.74 534 598.18 535.4 600.832 536.2C603.484 537 606.56 537.5 609.849 537.5C614.729 537.5 619.184 536.4 623.533 534.2C625.23 533.3 626.822 532.3 628.307 530.9V536.3H679.861V527.3H671.269V459.3ZM623.957 522.9C622.578 524.7 620.881 526 618.76 527C616.638 527.9 614.198 528.4 611.228 528.4C609.319 528.4 607.727 528.1 606.348 527.7C604.969 527.2 603.696 526.5 602.636 525.5C600.62 523.6 599.665 521.4 599.665 518.9C599.665 515.9 600.938 513.7 603.484 512.2C604.757 511.3 606.56 510.6 608.788 510.2C611.016 509.7 613.774 509.4 617.168 509.4H628.307C628.095 515 626.609 519.5 623.957 522.9Z" fill="white"/>
<mask id="mask1_1181_53" style="mask-type:luminance" maskUnits="userSpaceOnUse" x="285" y="76" width="495" height="308">
<path d="M285.565 345.9V384L780 115.1V76.6L285.565 345.9Z" fill="white"/>
</mask>
<g mask="url(#mask1_1181_53)">
<path d="M780 76.6H285.565V384H780V76.6Z" fill="url(#paint1_linear_1181_53)"/>
</g>
<defs>
<linearGradient id="paint0_linear_1181_53" x1="285.541" y1="364.989" x2="779.977" y2="364.989" gradientUnits="userSpaceOnUse">
<stop stop-color="#113E22"/>
<stop offset="0.09" stop-color="#177632"/>
<stop offset="0.91" stop-color="#8ABD22"/>
<stop offset="1" stop-color="#177632"/>
</linearGradient>
<linearGradient id="paint1_linear_1181_53" x1="285.563" y1="230.322" x2="779.97" y2="230.322" gradientUnits="userSpaceOnUse">
<stop stop-color="#113E22"/>
<stop offset="0.09" stop-color="#177632"/>
<stop offset="0.91" stop-color="#8ABD22"/>
<stop offset="1" stop-color="#177632"/>
</linearGradient>
</defs>
</svg>
